<?xml version="1.0" encoding="UTF-8" standalone="no"?>
<svg
   width="1536"
   height="768"
   viewBox="0 0 1536 768"
   version="1.1"
   id="svg19"
   sodipodi:docname="customer-manager-logo.svg"
   inkscape:version="1.4.2 (f4327f4, 2025-05-13)"
   xmlns:inkscape="http://www.inkscape.org/namespaces/inkscape"
   xmlns:sodipodi="http://sodipodi.sourceforge.net/DTD/sodipodi-0.dtd"
   xmlns="http://www.w3.org/2000/svg"
   xmlns:svg="http://www.w3.org/2000/svg"
   xmlns:c2pa="http://c2pa.org/manifest">
  <sodipodi:namedview
     id="namedview19"
     pagecolor="#ffffff"
     bordercolor="#000000"
     borderopacity="0.25"
     inkscape:showpageshadow="2"
     inkscape:pageopacity="0.0"
     inkscape:pagecheckerboard="0"
     inkscape:deskcolor="#d1d1d1"
     inkscape:zoom="0.35355339"
     inkscape:cx="231.93102"
     inkscape:cy="425.67828"
     inkscape:window-width="2560"
     inkscape:window-height="1009"
     inkscape:window-x="1912"
     inkscape:window-y="-8"
     inkscape:window-maximized="1"
     inkscape:current-layer="svg19" />
  <metadata
     id="metadata1">
    <c2pa:manifest>AAAk9mp1bWIAAAAeanVtZGMycGEAEQAQgAAAqgA4m3EDYzJwYQAAAA6CanVtYgAAAEdqdW1kYzJtYQARABCAAACqADibcQN1cm46YzJwYTpiZWFjOTdlYi0zNTM1LTQ5N2MtODJkMS01YzUzNDVmOTk2MzcAAAADs2p1bWIAAAApanVtZGMyYXMAEQAQgAAAqgA4m3EDYzJwYS5hc3NlcnRpb25zAAAAAMlqdW1iAAAARGp1bWRjYm9yABEAEIAAAKoAOJtxE2MycGEuaW5ncmVkaWVudC52MwAAAAAYYzJzaF7sP8lbrSjlIQ5KTXXUNX8AAAB9Y2JvcqRscmVsYXRpb25zaGlwaHBhcmVudE9maGRjOnRpdGxlZnNvdXJjZWlkYzpmb3JtYXRqaW1hZ2Uvd2VicGppbnN0YW5jZUlEeCx4bXA6aWlkOjQ0YmZhNzRlLTUwZmItNDY1Zi1hMzBhLWI2NGUzNjBlM2EwYwAAAfVqdW1iAAAAQWp1bWRjYm9yABEAEIAAAKoAOJtxE2MycGEuYWN0aW9ucy52MgAAAAAYYzJzaJmY7Gmnjzbbtuep+RLVFDEAAAGsY2JvcqFnYWN0aW9uc4KiZmFjdGlvbmtjMnBhLm9wZW5lZGpwYXJhbWV0ZXJzoWtpbmdyZWRpZW50c4GiY3VybHgtc2VsZiNqdW1iZj1jMnBhLmFzc2VydGlvbnMvYzJwYS5pbmdyZWRpZW50LnYzZGhhc2hYIAQ6OyCKhlBea5tr3aLrYGKz959+5MGCOuaHmI3ZRNofpGZhY3Rpb25rYzJwYS5lZGl0ZWRqcGFyYW1ldGVyc6FraW5ncmVkaWVudHOBomN1cmx4LXNlbGYjanVtYmY9YzJwYS5hc3NlcnRpb25zL2MycGEuaW5ncmVkaWVudC52M2RoYXNoWCAEOjsgioZQXmuba92i62Bis/effuTBgjrmh5iN2UTaH3FkaWdpdGFsU291cmNlVHlwZXhTaHR0cDovL2N2LmlwdGMub3JnL25ld3Njb2Rlcy9kaWdpdGFsc291cmNldHlwZS9jb21wb3NpdGVXaXRoVHJhaW5lZEFsZ29yaXRobWljTWVkaWFrZGVzY3JpcHRpb252Q3JlYXRlZCBieSBSZWNyYWZ0IEFJLgAAAMRqdW1iAAAAQGp1bWRjYm9yABEAEIAAAKoAOJtxE2MycGEuaGFzaC5kYXRhAAAAABhjMnNoJ3JZ2frGq+jKUxQ5LDG2vwAAAHxjYm9ypWpleGNsdXNpb25zgaJlc3RhcnQY2mZsZW5ndGgZE4xkbmFtZW5qdW1iZiBtYW5pZmVzdGNhbGdmc2hhMjU2ZGhhc2hYIKt5HZWXibo3RKLxrMA5YWdWeigrWlU0IM0BSvMJ1FieY3BhZEkAAAAAAAAAAAAAAAKkanVtYgAAACdqdW1kYzJjbAARABCAAACqADibcQNjMnBhLmNsYWltLnYyAAAAAnVjYm9yp2ppbnN0YW5jZUlEeCx4bXA6aWlkOjQ4ZTBhNjc5LTczNWEtNGRjZS1iZTY2LWQyODM0MTVjNWQwNXRjbGFpbV9nZW5lcmF0b3JfaW5mb6NkbmFtZWpyZWNyYWZ0LmFpZ3ZlcnNpb254KDgxY2U4MmUyYzVjM2NiZmJlOGM2ZmJlMTc5ZDVmOGQ5MWM0MDljZTF3b3JnLmNvbnRlbnRhdXRoLmMycGFfcnNmMC45MC43aXNpZ25hdHVyZXhNc2VsZiNqdW1iZj0vYzJwYS91cm46YzJwYTpiZWFjOTdlYi0zNTM1LTQ5N2MtODJkMS01YzUzNDVmOTk2MzcvYzJwYS5zaWduYXR1cmVyY3JlYXRlZF9hc3NlcnRpb25zgqJjdXJseCpzZWxmI2p1bWJmPWMycGEuYXNzZXJ0aW9ucy9jMnBhLmFjdGlvbnMudjJkaGFzaFggehumN3Pq/g/8IVtNQSK1WSHX9cIf4spJ1nPt4tZ/j7iiY3VybHgpc2VsZiNqdW1iZj1jMnBhLmFzc2VydGlvbnMvYzJwYS5oYXNoLmRhdGFkaGFzaFggc7+WjIBPANk5kAtkidVCQJDHia/nOEGnI5fA8j9E5lZzZ2F0aGVyZWRfYXNzZXJ0aW9uc4GiY3VybHgtc2VsZiNqdW1iZj1jMnBhLmFzc2VydGlvbnMvYzJwYS5pbmdyZWRpZW50LnYzZGhhc2hYIAQ6OyCKhlBea5tr3aLrYGKz959+5MGCOuaHmI3ZRNofaGRjOnRpdGxleBpSZWNyYWZ0IEFJIEdlbmVyYXRlZCBJbWFnZWNhbGdmc2hhMjU2AAAH3Gp1bWIAAAAoanVtZGMyY3MAEQAQgAAAqgA4m3EDYzJwYS5zaWduYXR1cmUAAAAHrGNib3LShFkDsKIBJhghglkB5zCCAeMwggGJoAMCAQICCQC33lpjQ1FuejAKBggqhkjOPQQDAjBAMR8wHQYDVQQDDBZSZWNyYWZ0IFN0YWdpbmcgRGV2IENBMRAwDgYDVQQKDAdSZWNyYWZ0MQswCQYDVQQGEwJVUzAeFw0yNjA2MTIxOTQzNTBaFw0yNzA2MTIxOTQzNTBaMDcxCzAJBgNVBAYTAlVTMRMwEQYDVQQKEwpSZWNyYWZ0IEFJMRMwEQYDVQQDEwpyZWNyYWZ0LmFpMFkwEwYHKoZIzj0CAQYIKoZIzj0DAQcDQgAESmk1WwArIPw3hty3jsWHSA/1QOhBRu9xOjpJ2/iiIghScoEVM+Lnjds/7dqmG+giFL0vEb4DoogpX6KrGLcPNaN1MHMwDAYDVR0TAQH/BAIwADAOBgNVHQ8BAf8EBAMCBsAwEwYDVR0lBAwwCgYIKwYBBQUHAwQwHQYDVR0OBBYEFC8x6QXp/eki9cuCDx2vDJDLIV39MB8GA1UdIwQYMBaAFAILKjgayqqXSv/5v5MWaO2UeHm3MAoGCCqGSM49BAMCA0gAMEUCIFPISltGl775PEkIFRTZGsevWJvWnvBrE9kWU0MPgedQAiEAtA+AZBKEQ+DdK9mUZDctB2Wlt1iAsv0GRjfeYpReMsxZAb0wggG5MIIBX6ADAgECAgkAnPloO0+gE28wCgYIKoZIzj0EAwIwQDEfMB0GA1UEAwwWUmVjcmFmdCBTdGFnaW5nIERldiBDQTEQMA4GA1UECgwHUmVjcmFmdDELMAkGA1UEBhMCVVMwHhcNMjYwNjEyMTk0MDE2WhcNMjgwNjExMTk0MDE2WjBAMR8wHQYDVQQDDBZSZWNyYWZ0IFN0YWdpbmcgRGV2IENBMRAwDgYDVQQKDAdSZWNyYWZ0MQswCQYDVQQGEwJVUzBZMBMGByqGSM49AgEGCCqGSM49AwEHA0IABEPSEAZXFWymij2K0EnzoS/9NLO8VAwu0YpyLizvyNZPfcvcoeqFhfZD8Wj/rcdb9T3ji98q1arie99B9GRog8qjQjBAMA8GA1UdEwEB/wQFMAMBAf8wDgYDVR0PAQH/BAQDAgGGMB0GA1UdDgQWBBQCCyo4Gsqql0r/+b+TFmjtlHh5tzAKBggqhkjOPQQDAgNIADBFAiBUMDSJi5WA3kIY4BfmYqk24HLs0qpjicN0NpUP4bvNxQIhAPTvHC5v8X6FS6geI7XW7h84t1i/qdkTfg0RpMKWLMFboWNwYWRZA6QAAAAAAAAAAAAAAAAAAAAAAAAAAAAAAAAAAAAAAAAAAAAAAAAAAAAAAAAAAAAAAAAAAAAAAAAAAAAAAAAAAAAAAAAAAAAAAAAAAAAAAAAAAAAAAAAAAAAAAAAAAAAAAAAAAAAAAAAAAAAAAAAAAAAAAAAAAAAAAAAAAAAAAAAAAAAAAAAAAAAAAAAAAAAAAAAAAAAAAAAAAAAAAAAAAAAAAAAAAAAAAAAAAAAAAAAAAAAAAAAAAAAAAAAAAAAAAAAAAAAAAAAAAAAAAAAAAAAAAAAAAAAAAAAAAAAAAAAAAAAAAAAAAAAAAAAAAAAAAAAAAAAAAAAAAAAAAAAAAAAAAAAAAAAAAAAAAAAAAAAAAAAAAAAAAAAAAAAAAAAAAAAAAAAAAAAAAAAAAAAAAAAAAAAAAAAAAAAAAAAAAAAAAAAAAAAAAAAAAAAAAAAAAAAAAAAAAAAAAAAAAAAAAAAAAAAAAAAAAAAAAAAAAAAAAAAAAAAAAAAAAAAAAAAAAAAAAAAAAAAAAAAAAAAAAAAAAAAAAAAAAAAAAAAAAAAAAAAAAAAAAAAAAAAAAAAAAAAAAAAAAAAAAAAAAAAAAAAAAAAAAAAAAAAAAAAAAAAAAAAAAAAAAAAAAAAAAAAAAAAAAAAAAAAAAAAAAAAAAAAAAAAAAAAAAAAAAAAAAAAAAAAAAAAAAAAAAAAAAAAAAAAAAAAAAAAAAAAAAAAAAAAAAAAAAAAAAAAAAAAAAAAAAAAAAAAAAAAAAAAAAAAAAAAAAAAAAAAAAAAAAAAAAAAAAAAAAAAAAAAAAAAAAAAAAAAAAAAAAAAAAAAAAAAAAAAAAAAAAAAAAAAAAAAAAAAAAAAAAAAAAAAAAAAAAAAAAAAAAAAAAAAAAAAAAAAAAAAAAAAAAAAAAAAAAAAAAAAAAAAAAAAAAAAAAAAAAAAAAAAAAAAAAAAAAAAAAAAAAAAAAAAAAAAAAAAAAAAAAAAAAAAAAAAAAAAAAAAAAAAAAAAAAAAAAAAAAAAAAAAAAAAAAAAAAAAAAAAAAAAAAAAAAAAAAAAAAAAAAAAAAAAAAAAAAAAAAAAAAAAAAAAAAAAAAAAAAAAAAAAAAAAAAAAAAAAAAAAAAAAAAAAAAAAAAAAAAAAAAAAAAAAAAAAAAAAAAAAAAAAAAAAAAAAAAAAAAAAAAAAAAAAAAAAAAAAAAAAAAAAAAAAAAAAAAAAAAAAAAAAAAAAAAAAAAAAAAAAAAAAAAPZYQICEmpphfnxae2fysaMLGJiYAfUHyV7LBdy+Wr89ynINgOgIKwbCN8GKAgMZ0o5BUFnyabOosgsbFZgikF2Cz6sAABZOanVtYgAAAEdqdW1kYzJtYQARABCAAACqADibcQN1cm46YzJwYTpjMzM0YTFlNy04MzQyLTRmM2YtYjFmMi0wZmQ1YjVlM2Y5NDMAAAALf2p1bWIAAAApanVtZGMyYXMAEQAQgAAAqgA4m3EDYzJwYS5hc3NlcnRpb25zAAAACJVqdW1iAAAARGp1bWRjYm9yABEAEIAAAKoAOJtxE2MycGEuaW5ncmVkaWVudC52MwAAAAAYYzJzaD0RuFkxyou38YdiWyHBu94AAAhJY2JvcqdscmVsYXRpb25zaGlwaHBhcmVudE9maGRjOnRpdGxlZnNvdXJjZWlkYzpmb3JtYXRtaW1hZ2Uvc3ZnK3htbHF2YWxpZGF0aW9uUmVzdWx0c6JuYWN0aXZlTWFuaWZlc3SjZ3N1Y2Nlc3OGo2Rjb2RleB1jbGFpbVNpZ25hdHVyZS5pbnNpZGVWYWxpZGl0eWN1cmx4TXNlbGYjanVtYmY9L2MycGEvdXJuOmMycGE6YmVhYzk3ZWItMzUzNS00OTdjLTgyZDEtNWM1MzQ1Zjk5NjM3L2MycGEuc2lnbmF0dXJla2V4cGxhbmF0aW9udWNsYWltIHNpZ25hdHVyZSB2YWxpZKNkY29kZXgYY2xhaW1TaWduYXR1cmUudmFsaWRhdGVkY3VybHhNc2VsZiNqdW1iZj0vYzJwYS91cm46YzJwYTpiZWFjOTdlYi0zNTM1LTQ5N2MtODJkMS01YzUzNDVmOTk2MzcvYzJwYS5zaWduYXR1cmVrZXhwbGFuYXRpb251Y2xhaW0gc2lnbmF0dXJlIHZhbGlko2Rjb2RleBlhc3NlcnRpb24uaGFzaGVkVVJJLm1hdGNoY3VybHhec2VsZiNqdW1iZj0vYzJwYS91cm46YzJwYTpiZWFjOTdlYi0zNTM1LTQ5N2MtODJkMS01YzUzNDVmOTk2MzcvYzJwYS5hc3NlcnRpb25zL2MycGEuYWN0aW9ucy52MmtleHBsYW5hdGlvbng+aGFzaGVkIHVyaSBtYXRjaGVkOiBzZWxmI2p1bWJmPWMycGEuYXNzZXJ0aW9ucy9jMnBhLmFjdGlvbnMudjKjZGNvZGV4GWFzc2VydGlvbi5oYXNoZWRVUkkubWF0Y2hjdXJseF1zZWxmI2p1bWJmPS9jMnBhL3VybjpjMnBhOmJlYWM5N2ViLTM1MzUtNDk3Yy04MmQxLTVjNTM0NWY5OTYzNy9jMnBhLmFzc2VydGlvbnMvYzJwYS5oYXNoLmRhdGFrZXhwbGFuYXRpb254PWhhc2hlZCB1cmkgbWF0Y2hlZDogc2VsZiNqdW1iZj1jMnBhLmFzc2VydGlvbnMvYzJwYS5oYXNoLmRhdGGjZGNvZGV4GWFzc2VydGlvbi5oYXNoZWRVUkkubWF0Y2hjdXJseGFzZWxmI2p1bWJmPS9jMnBhL3VybjpjMnBhOmJlYWM5N2ViLTM1MzUtNDk3Yy04MmQxLTVjNTM0NWY5OTYzNy9jMnBhLmFzc2VydGlvbnMvYzJwYS5pbmdyZWRpZW50LnYza2V4cGxhbmF0aW9ueEFoYXNoZWQgdXJpIG1hdGNoZWQ6IHNlbGYjanVtYmY9YzJwYS5hc3NlcnRpb25zL2MycGEuaW5ncmVkaWVudC52M6NkY29kZXgYYXNzZXJ0aW9uLmRhdGFIYXNoLm1hdGNoY3VybHhdc2VsZiNqdW1iZj0vYzJwYS91cm46YzJwYTpiZWFjOTdlYi0zNTM1LTQ5N2MtODJkMS01YzUzNDVmOTk2MzcvYzJwYS5hc3NlcnRpb25zL2MycGEuaGFzaC5kYXRha2V4cGxhbmF0aW9ub2RhdGEgaGFzaCB2YWxpZG1pbmZvcm1hdGlvbmFsgGdmYWlsdXJlgaNkY29kZXgbc2lnbmluZ0NyZWRlbnRpYWwudW50cnVzdGVkY3VybHhNc2VsZiNqdW1iZj0vYzJwYS91cm46YzJwYTpiZWFjOTdlYi0zNTM1LTQ5N2MtODJkMS01YzUzNDVmOTk2MzcvYzJwYS5zaWduYXR1cmVrZXhwbGFuYXRpb254HXNpZ25pbmcgY2VydGlmaWNhdGUgdW50cnVzdGVkcGluZ3JlZGllbnREZWx0YXOBonZpbmdyZWRpZW50QXNzZXJ0aW9uVVJJeGFzZWxmI2p1bWJmPS9jMnBhL3VybjpjMnBhOmJlYWM5N2ViLTM1MzUtNDk3Yy04MmQxLTVjNTM0NWY5OTYzNy9jMnBhLmFzc2VydGlvbnMvYzJwYS5pbmdyZWRpZW50LnYzcHZhbGlkYXRpb25EZWx0YXOjZ3N1Y2Nlc3OAbWluZm9ybWF0aW9uYWyBo2Rjb2RleBxpbmdyZWRpZW50LnVua25vd25Qcm92ZW5hbmNlY3VybHhhc2VsZiNqdW1iZj0vYzJwYS91cm46YzJwYTpiZWFjOTdlYi0zNTM1LTQ5N2MtODJkMS01YzUzNDVmOTk2MzcvYzJwYS5hc3NlcnRpb25zL2MycGEuaW5ncmVkaWVudC52M2tleHBsYW5hdGlvbngrc291cmNlOiBpbmdyZWRpZW50IGRvZXMgbm90IGhhdmUgcHJvdmVuYW5jZWdmYWlsdXJlgGppbnN0YW5jZUlEeCx4bXA6aWlkOjFmYTVlMTM1LTI4YTItNDc4ZS1hZDQxLTUwNjVjOGI2OGM5Nm5hY3RpdmVNYW5pZmVzdKNjdXJseD5zZWxmI2p1bWJmPS9jMnBhL3VybjpjMnBhOmJlYWM5N2ViLTM1MzUtNDk3Yy04MmQxLTVjNTM0NWY5OTYzN2NhbGdmc2hhMjU2ZGhhc2hYIJpb7eGkTlxcNZ1HYItoCf9MlbP/ZXqgDfzPETftTzCTbmNsYWltU2lnbmF0dXJlo2N1cmx4TXNlbGYjanVtYmY9L2MycGEvdXJuOmMycGE6YmVhYzk3ZWItMzUzNS00OTdjLTgyZDEtNWM1MzQ1Zjk5NjM3L2MycGEuc2lnbmF0dXJlY2FsZ2ZzaGEyNTZkaGFzaFggoYPtgcSvIWX59MaT4w4DSS7Xkq/8aHpXYHjFrMudQ5IAAAH1anVtYgAAAEFqdW1kY2JvcgARABCAAACqADibcRNjMnBhLmFjdGlvbnMudjIAAAAAGGMyc2h0VUs9oIWbHRmAYzIEsm8LAAABrGNib3KhZ2FjdGlvbnOComZhY3Rpb25rYzJwYS5vcGVuZWRqcGFyYW1ldGVyc6FraW5ncmVkaWVudHOBomN1cmx4LXNlbGYjanVtYmY9YzJwYS5hc3NlcnRpb25zL2MycGEuaW5ncmVkaWVudC52M2RoYXNoWCCLXizEFfo+Xw74gevYDXbGMg37TX717QzPH0rqdQvpCqRmYWN0aW9ua2MycGEuZWRpdGVkanBhcmFtZXRlcnOha2luZ3JlZGllbnRzgaJjdXJseC1zZWxmI2p1bWJmPWMycGEuYXNzZXJ0aW9ucy9jMnBhLmluZ3JlZGllbnQudjNkaGFzaFggi14sxBX6Pl8O+IHr2A12xjIN+01+9e0Mzx9K6nUL6QpxZGlnaXRhbFNvdXJjZVR5cGV4U2h0dHA6Ly9jdi5pcHRjLm9yZy9uZXdzY29kZXMvZGlnaXRhbHNvdXJjZXR5cGUvY29tcG9zaXRlV2l0aFRyYWluZWRBbGdvcml0aG1pY01lZGlha2Rlc2NyaXB0aW9udkNyZWF0ZWQgYnkgUmVjcmFmdCBBSS4AAADEanVtYgAAAEBqdW1kY2JvcgARABCAAACqADibcRNjMnBhLmhhc2guZGF0YQAAAAAYYzJzaBEdWU9idtyISctmFdSgzR8AAAB8Y2JvcqVqZXhjbHVzaW9uc4GiZXN0YXJ0GOpmbGVuZ3RoGTFIZG5hbWVuanVtYmYgbWFuaWZlc3RjYWxnZnNoYTI1NmRoYXNoWCCz9cLlWdpWcN5hdfm8f5G+xauYiqgeMG7ncGVqECaAx2NwYWRJAAAAAAAAAAAAAAACpGp1bWIAAAAnanVtZGMyY2wAEQAQgAAAqgA4m3EDYzJwYS5jbGFpbS52MgAAAAJ1Y2JvcqdqaW5zdGFuY2VJRHgseG1wOmlpZDo0YTIzNjc0Yi0xZGIyLTRiODUtYWU3Ny1jMmYyZWI0YTMxMWR0Y2xhaW1fZ2VuZXJhdG9yX2luZm+jZG5hbWVqcmVjcmFmdC5haWd2ZXJzaW9ueCg4MWNlODJlMmM1YzNjYmZiZThjNmZiZTE3OWQ1ZjhkOTFjNDA5Y2Uxd29yZy5jb250ZW50YXV0aC5jMnBhX3JzZjAuOTAuN2lzaWduYXR1cmV4TXNlbGYjanVtYmY9L2MycGEvdXJuOmMycGE6YzMzNGExZTctODM0Mi00ZjNmLWIxZjItMGZkNWI1ZTNmOTQzL2MycGEuc2lnbmF0dXJlcmNyZWF0ZWRfYXNzZXJ0aW9uc4KiY3VybHgqc2VsZiNqdW1iZj1jMnBhLmFzc2VydGlvbnMvYzJwYS5hY3Rpb25zLnYyZGhhc2hYINKuUO31SqpNBJUwixLzq2amrwpwt7zc0HzgFFAmgLzaomN1cmx4KXNlbGYjanVtYmY9YzJwYS5hc3NlcnRpb25zL2MycGEuaGFzaC5kYXRhZGhhc2hYIFCCTOGRTQOwgi5WiYeQ58Y+j2qc1Mm2y1pEFkrUVRW0c2dhdGhlcmVkX2Fzc2VydGlvbnOBomN1cmx4LXNlbGYjanVtYmY9YzJwYS5hc3NlcnRpb25zL2MycGEuaW5ncmVkaWVudC52M2RoYXNoWCCLXizEFfo+Xw74gevYDXbGMg37TX717QzPH0rqdQvpCmhkYzp0aXRsZXgaUmVjcmFmdCBBSSBHZW5lcmF0ZWQgSW1hZ2VjYWxnZnNoYTI1NgAAB9xqdW1iAAAAKGp1bWRjMmNzABEAEIAAAKoAOJtxA2MycGEuc2lnbmF0dXJlAAAAB6xjYm9y0oRZA7CiASYYIYJZAecwggHjMIIBiaADAgECAgkAt95aY0NRbnowCgYIKoZIzj0EAwIwQDEfMB0GA1UEAwwWUmVjcmFmdCBTdGFnaW5nIERldiBDQTEQMA4GA1UECgwHUmVjcmFmdDELMAkGA1UEBhMCVVMwHhcNMjYwNjEyMTk0MzUwWhcNMjcwNjEyMTk0MzUwWjA3MQswCQYDVQQGEwJVUzETMBEGA1UEChMKUmVjcmFmdCBBSTETMBEGA1UEAxMKcmVjcmFmdC5haTBZMBMGByqGSM49AgEGCCqGSM49AwEHA0IABEppNVsAKyD8N4bct47Fh0gP9UDoQUbvcTo6Sdv4oiIIUnKBFTPi543bP+3aphvoIhS9LxG+A6KIKV+iqxi3DzWjdTBzMAwGA1UdEwEB/wQCMAAwDgYDVR0PAQH/BAQDAgbAMBMGA1UdJQQMMAoGCCsGAQUFBwMEMB0GA1UdDgQWBBQvMekF6f3pIvXLgg8drwyQyyFd/TAfBgNVHSMEGDAWgBQCCyo4Gsqql0r/+b+TFmjtlHh5tzAKBggqhkjOPQQDAgNIADBFAiBTyEpbRpe++TxJCBUU2RrHr1ib1p7waxPZFlNDD4HnUAIhALQPgGQShEPg3SvZlGQ3LQdlpbdYgLL9BkY33mKUXjLMWQG9MIIBuTCCAV+gAwIBAgIJAJz5aDtPoBNvMAoGCCqGSM49BAMCMEAxHzAdBgNVBAMMFlJlY3JhZnQgU3RhZ2luZyBEZXYgQ0ExEDAOBgNVBAoMB1JlY3JhZnQxCzAJBgNVBAYTAlVTMB4XDTI2MDYxMjE5NDAxNloXDTI4MDYxMTE5NDAxNlowQDEfMB0GA1UEAwwWUmVjcmFmdCBTdGFnaW5nIERldiBDQTEQMA4GA1UECgwHUmVjcmFmdDELMAkGA1UEBhMCVVMwWTATBgcqhkjOPQIBBggqhkjOPQMBBwNCAARD0hAGVxVspoo9itBJ86Ev/TSzvFQMLtGKci4s78jWT33L3KHqhYX2Q/Fo/63HW/U944vfKtWq4nvfQfRkaIPKo0IwQDAPBgNVHRMBAf8EBTADAQH/MA4GA1UdDwEB/wQEAwIBhjAdBgNVHQ4EFgQUAgsqOBrKqpdK//m/kxZo7ZR4ebcwCgYIKoZIzj0EAwIDSAAwRQIgVDA0iYuVgN5CGOAX5mKpNuBy7NKqY4nDdDaVD+G7zcUCIQD07xwub/F+hUuoHiO11u4fOLdYv6nZE34NEaTClizBW6FjcGFkWQOkAAAAAAAAAAAAAAAAAAAAAAAAAAAAAAAAAAAAAAAAAAAAAAAAAAAAAAAAAAAAAAAAAAAAAAAAAAAAAAAAAAAAAAAAAAAAAAAAAAAAAAAAAAAAAAAAAAAAAAAAAAAAAAAAAAAAAAAAAAAAAAAAAAAAAAAAAAAAAAAAAAAAAAAAAAAAAAAAAAAAAAAAAAAAAAAAAAAAAAAAAAAAAAAAAAAAAAAAAAAAAAAAAAAAAAAAAAAAAAAAAAAAAAAAAAAAAAAAAAAAAAAAAAAAAAAAAAAAAAAAAAAAAAAAAAAAAAAAAAAAAAAAAAAAAAAAAAAAAAAAAAAAAAAAAAAAAAAAAAAAAAAAAAAAAAAAAAAAAAAAAAAAAAAAAAAAAAAAAAAAAAAAAAAAAAAAAAAAAAAAAAAAAAAAAAAAAAAAAAAAAAAAAAAAAAAAAAAAAAAAAAAAAAAAAAAAAAAAAAAAAAAAAAAAAAAAAAAAAAAAAAAAAAAAAAAAAAAAAAAAAAAAAAAAAAAAAAAAAAAAAAAAAAAAAAAAAAAAAAAAAAAAAAAAAAAAAAAAAAAAAAAAAAAAAAAAAAAAAAAAAAAAAAAAAAAAAAAAAAAAAAAAAAAAAAAAAAAAAAAAAAAAAAAAAAAAAAAAAAAAAAAAAAAAAAAAAAAAAAAAAAAAAAAAAAAAAAAAAAAAAAAAAAAAAAAAAAAAAAAAAAAAAAAAAAAAAAAAAAAAAAAAAAAAAAAAAAAAAAAAAAAAAAAAAAAAAAAAAAAAAAAAAAAAAAAAAAAAAAAAAAAAAAAAAAAAAAAAAAAAAAAAAAAAAAAAAAAAAAAAAAAAAAAAAAAAAAAAAAAAAAAAAAAAAAAAAAAAAAAAAAAAAAAAAAAAAAAAAAAAAAAAAAAAAAAAAAAAAAAAAAAAAAAAAAAAAAAAAAAAAAAAAAAAAAAAAAAAAAAAAAAAAAAAAAAAAAAAAAAAAAAAAAAAAAAAAAAAAAAAAAAAAAAAAAAAAAAAAAAAAAAAAAAAAAAAAAAAAAAAAAAAAAAAAAAAAAAAAAAAAAAAAAAAAAAAAAAAAAAAAAAAAAAAAAAAAAAAAAAAAAAAAAAAAAAAAAAAAAAAAAAAAAAAAAAAAAAAAAAAAAAAAAAAAAAAAAAAAAAAAAAAAAAAAAAAAAAAAAAAAAAAAAAAAAAAAAAAAAAAAAAAAAAAAAAAAAAAAAAAAAAAAAAAAAAAAAAAAAAAAAAAAAAAAAAAAAAAAAAAAAD2WED/RBfFeMC4M/7U2x8xXs1YLXVwMoZeX9LhiQZ+RpnshxNKIMXSXMVyXVaTx1f98VI82JSuMYay09beGTDrmGQD</c2pa:manifest>
  </metadata>
  <defs
     id="defs2">
    <linearGradient
       id="gradient_0"
       gradientUnits="userSpaceOnUse"
       x1="939.87067"
       y1="119.55755"
       x2="658.05414"
       y2="314.97351">
      <stop
         offset="0"
         stop-color="#FFD50E"
         id="stop1" />
      <stop
         offset="1"
         stop-color="#F25B2C"
         id="stop2" />
    </linearGradient>
  </defs>
  <path
     fill="url(#gradient_0)"
     d="M590.499 217.256C607.183 180.419 617.517 142.165 658.865 126.982C683.018 118.113 725.689 121.208 752.23 120.769C773.777 120.412 798.523 120.569 820.11 120.88C813.759 135.619 805.628 153.13 794.249 164.716C790.576 168.456 785.376 171.625 780.464 173.606C741.604 189.277 679.335 155.814 657.505 204.399C654.915 210.163 653.41 216.077 650.572 222.127C641.872 240.677 620.571 272.607 648.371 285.769C657.35 290.02 677.456 289.477 687.709 288.666C692.138 287.518 727.224 288.179 733.151 288.51C771.935 290.524 775.503 280.829 791.104 249.401C800.002 231.622 808.76 213.772 817.378 195.855C823.836 182.165 829.554 168.506 837.512 155.607C863.244 113.866 925.933 109.07 958.704 144.928C974.227 161.913 979.969 189.536 970.323 210.649C953.066 248.42 934.718 286.297 915.686 323.191C902.291 349.156 867.319 343.354 842.999 343.569C859.435 311.077 875.641 278.469 891.616 245.747C898.798 231.177 914.639 202.292 917.809 188.122C915.927 183.398 912.323 177.392 907.495 175.616C889.298 168.919 879.855 194.144 874.66 205.293C863.541 229.153 852.516 250.351 840.992 273.752C835.159 285.388 827.872 302.45 819.892 312.051C794.327 342.811 759.377 344.97 722.437 343.607C710.084 343.152 696.16 343.949 683.83 343.37C661.314 344.091 638.576 345.141 617.849 334.835C599.681 325.802 584.149 311.05 577.603 291.554C568.364 264.041 578.651 241.638 590.499 217.256Z"
     id="path2" />
  <path
     fill="#F1532D"
     d="M590.499 217.256C600.084 229.373 608.922 239.676 617.397 252.798C623.413 262.112 629.03 272.638 635.148 281.704C639.992 288.882 648.241 296.215 653.59 304.303C661.853 316.799 670.459 330.325 679.458 342.352C679.899 342.942 682.639 342.609 683.83 343.37C661.314 344.091 638.576 345.141 617.849 334.835C599.681 325.802 584.149 311.05 577.603 291.554C568.364 264.041 578.651 241.638 590.499 217.256Z"
     id="path3" />
  <path
     fill="#211F20"
     d="M897.331 564.921C913.098 563.828 919.118 566.184 931.66 575.343L931.644 566.256L949.299 566.199L949.459 619.738C949.546 646.499 954.057 683.089 917.984 688.372C902.212 690.682 889.17 688.036 877.456 676.725C873.63 673.03 865.146 664.453 870.064 659.266L885.47 659.354C892.294 673.071 907.03 679.41 921.256 672.153C933.842 665.733 931.86 648.31 931.487 636.325C925.663 641.972 919.962 646.08 911.877 648.006C902.032 650.392 891.641 648.675 883.086 643.249C855.26 625.511 857.642 574.675 892.204 566.068C893.912 565.642 895.605 565.269 897.331 564.921ZM910.116 634.551C947.497 624.732 933.802 573.296 905.796 577.735C903.563 578.047 900.82 578.409 898.684 579.048C878.058 585.227 874.857 618.023 892.134 629.733C897.966 633.686 903.214 634.683 910.116 634.551Z"
     id="path4" />
  <path
     fill="#211F20"
     d="M591.912 564.932C607.461 563.868 613.441 566.838 625.515 575.823L625.592 566.093C630.625 565.559 637.54 565.639 642.741 565.558L642.585 647.133L624.997 647.22C625.104 644.227 625.782 639.341 624.006 637.378L621.874 638.867C616.237 643.516 610.959 646.586 603.668 648.045C593.835 649.968 583.641 647.855 575.382 642.182C552.929 627.02 551.162 586.388 574.601 571.173C580.152 567.57 585.484 566.068 591.912 564.932ZM604.187 634.589C631.127 626.7 633.323 591.632 612.156 580.475C607.772 578.214 602.848 577.213 597.93 577.583C579.84 582.082 570.85 596.163 575.927 614.59C577.787 621.608 582.426 627.564 588.773 631.087C593.386 633.623 598.95 634.684 604.187 634.589Z"
     id="path5" />
  <path
     fill="#211F20"
     d="M794.381 564.938C810.657 563.846 816.126 566.28 828.802 575.845L828.791 565.682L845.947 565.595L845.985 647.244L829.048 647.311C829.095 644.591 829.523 639.893 828.421 637.671L827.087 637.551L824.285 639.947C819.417 643.77 815.256 646.407 809.017 647.725C770.172 655.933 749.536 611.393 768.122 581.561C774.053 572.042 783.668 567.087 794.381 564.938ZM807.943 634.371C826.762 629.642 832.656 614.896 828.392 596.014C825.391 582.725 813.216 576.805 800.021 577.547C764.794 590.057 775.362 636.272 807.943 634.371Z"
     id="path6" />
  <path
     fill="#211F20"
     d="M518.732 545.257L537.84 545.249C538.684 579.228 538.704 613.223 537.901 647.203L521.056 647.27C521.186 635.075 521.074 622.878 520.718 610.688C520.556 599.577 521.167 588.037 521.136 576.744C510.458 598.457 499.528 624.855 489.787 647.162L474.552 647.266C466.073 626.061 453.557 599.095 443.373 578.472C443.163 601.392 443.1 624.313 443.185 647.234L426.438 647.255C425.142 616.14 426.125 576.986 426.006 545.256L444.861 545.265C456.713 573.018 469.252 600.472 482.467 627.603C494.413 600.092 506.502 572.643 518.732 545.257Z"
     id="path7" />
  <path
     fill="#211F20"
     d="M778.136 424.865C801.611 421.52 823.307 437.965 826.431 461.47C829.556 484.976 812.908 506.517 789.374 509.421C766.151 512.286 744.955 495.905 741.872 472.709C738.789 449.514 754.97 428.165 778.136 424.865ZM787.856 495.081C821.866 486.462 813.668 435.207 779.611 438.874C771.175 441.851 765.326 445.352 761.205 453.932C757.811 461.162 757.412 469.441 760.094 476.964C764.56 489.599 774.899 495.198 787.856 495.081Z"
     id="path8" />
  <path
     fill="#211F20"
     d="M883.451 425.416C900.741 424.076 910.657 426.852 921.788 440.864C923.342 438.842 925.015 436.913 926.798 435.089C939.994 421.605 965.841 421.521 978.641 434.529C993.195 449.321 988.582 488.642 988.444 508.375L972.082 508.167C971.865 489.993 973.533 470.58 969.799 452.836C967.941 444.006 957.262 439.255 949.003 439.398C923.745 439.835 924.667 460.162 924.675 478.875L924.614 508.236L908.388 508.306C908.496 494.406 911.035 452.09 902.596 446.43C852.748 412.997 862.019 495.238 862.477 508.368L846.165 508.387C845.714 481.277 846.035 453.305 846.005 426.127L863.153 426.222L862.544 435.89C870.462 429.591 873.54 427.568 883.451 425.416Z"
     id="path9" />
  <path
     fill="#211F20"
     d="M1003.45 565C1004.74 564.916 1006.04 564.848 1007.33 564.796C1039.26 563.563 1048.61 583.176 1049.35 611.229L984.08 611.065C988.518 630.706 1005.74 642.185 1024.54 629.548C1027.51 627.554 1027.12 623.136 1032.19 621.423C1037.6 621.212 1043.35 621.422 1048.79 621.533C1047.01 625.536 1045.56 628.816 1043.02 632.436C1029.57 651.316 1001.55 653.568 983.328 640.43C965.217 627.371 962.627 597.299 975.392 579.702C982.132 570.408 992.434 566.608 1003.45 565ZM984.22 599.323L1011.56 599.299L1032.47 599.342C1027.63 582.944 1021.78 577.076 1003.57 578.397C991.615 582.609 987.82 586.967 984.22 599.323Z"
     id="path10" />
  <path
     fill="#211F20"
     d="M1040.78 425.507C1041.52 425.459 1042.27 425.416 1043.01 425.38C1077.04 423.706 1086.46 441.526 1087.47 471.623L1022.59 471.755C1026.4 494.18 1050.14 504.999 1065.93 485.828C1066.99 484.535 1067.99 483.012 1068.95 481.629C1073.91 481.346 1081.51 481.619 1086.67 481.639C1076.98 509.255 1046.83 517.096 1023.19 501.865C1004.06 489.545 1000.96 457.954 1014.03 440.361C1020.87 431.163 1029.57 427.144 1040.78 425.507ZM1022.37 460.273L1051.12 460.289L1070.54 460.351C1066.45 445.224 1060.62 437 1043.2 438.836C1029.86 442.708 1026.5 447.113 1022.37 460.273Z"
     id="path11" />
  <path
     fill="#F1532D"
     d="M687.709 288.666C686.631 266.307 692.219 244.874 708.792 228.991C727.233 211.316 750.165 212.957 773.897 213.711C770.845 220.067 763.798 231.456 760.067 238.23C750.947 254.91 741.974 271.671 733.151 288.51C727.224 288.179 692.138 287.518 687.709 288.666Z"
     id="path12" />
  <path
     fill="#211F20"
     d="M426.954 403.043C451.902 401.765 468.708 411.81 478.685 434.6C473.144 434.918 466.248 434.761 460.601 434.778C455.041 427.342 448.679 421.057 439.503 418.847C387.927 406.426 375.67 480.032 420.316 494.362C429.799 497.406 442.416 493.649 450.877 488.443C454.819 485.093 457.29 481.789 460.527 477.784C466.734 477.584 473.254 477.652 479.489 477.624C463.397 508.742 423.012 520.36 395.232 497.817C384.487 488.932 377.755 476.108 376.545 462.219C373.233 427.89 393.374 406.16 426.954 403.043Z"
     id="path13" />
  <path
     fill="#211F20"
     d="M703.379 564.94C704.916 564.798 706.458 564.723 708.001 564.715C730.026 564.439 742.112 575.731 743.418 597.647C744.41 614.288 744.047 630.633 743.947 647.287L726.919 647.215C726.797 633.503 727.437 619.65 727.18 605.925C726.814 586.357 720.355 576.908 700.315 577.553C681.143 582.57 682.943 599.744 682.918 615.767C682.902 626.25 683.104 636.768 683.219 647.249L666.154 647.279C665.658 620.452 666.011 592.515 665.966 565.599L683.223 565.517L683.908 574.335C690.842 568.191 694.539 566.635 703.379 564.94Z"
     id="path14" />
  <path
     fill="#211F20"
     d="M562.62 426.214C568.134 426.094 573.95 426.188 579.491 426.186L579.529 448.313C579.807 468.125 579.692 487.942 579.183 507.75L562.588 507.92L562.557 498.773C555.108 504.617 546.661 509.75 536.931 509.342C499.118 507.758 500.17 478.297 500.707 451.525C500.832 443.085 500.901 434.644 500.913 426.203L516.726 426.24C516.638 437.903 513.994 482.488 524.538 489.319C551.31 506.664 566.188 485.039 562.793 458.288C562.064 452.542 562.658 433.556 562.62 426.214Z"
     id="path15" />
  <path
     fill="#211F20"
     d="M623.11 425.392C647.334 423.87 657.865 428.524 664.904 452.783C659.225 452.571 653.425 452.491 647.733 452.35C642.554 438.018 627.215 432.434 616.644 445.751C611.428 454.214 633.155 460.752 637.934 461.566C669.803 466.999 677.8 501.093 641.299 508.77C619.782 511.909 606.28 502.661 599.375 482.524L616.675 482.79C619.838 488.116 619.685 488.368 624.731 492.614C632.038 498.763 652.154 495.218 648.813 483.923C645.707 473.419 623.255 472.586 614.881 467.46C610.112 464.541 602.613 460.252 600.796 453.748C597.03 437.437 610.647 429.188 623.11 425.392Z"
     id="path16" />
  <path
     fill="#211F20"
     d="M689.831 406.334L707.105 406.144L706.932 426.042L726.694 426.13L726.639 440.195L706.701 440.261C706.348 450.019 704.48 483.866 710.734 492.454C712.588 495.001 723.201 494.432 727.35 494.536L727.395 507.717C716.51 507.777 705.002 508.8 696.476 500.571C690.589 494.87 689.581 486.258 689.679 478.467C689.839 465.735 689.906 452.998 689.988 440.262L681.563 440.171L681.564 426.046L689.984 425.73C690.049 419.332 689.9 412.748 689.831 406.334Z"
     id="path17" />
  <path
     fill="#211F20"
     d="M1109.01 565.052L1110.68 565.042C1113.45 568.021 1112.54 576.01 1112.5 580.464L1112.05 580.462C1074.33 580.392 1083.53 619.756 1083.65 647.434C1078.98 647.562 1073 648.257 1068.82 646.854C1066.85 644.842 1067.42 645.59 1067.22 642.187L1067.18 565.675L1084.06 565.543L1084.01 577.616C1092.62 568.542 1096.69 566.52 1109.01 565.052Z"
     id="path18" />
  <path
     fill="#211F20"
     d="M1147.28 425.448C1148.09 425.404 1149.31 425.6 1150.17 425.699C1153.04 428.734 1152.04 436.395 1151.92 440.758L1151.52 440.751C1131.67 440.442 1123.35 448.979 1123.28 469.101C1123.23 482.159 1123.41 495.347 1123.46 508.415C1119.12 508.534 1108.59 510.022 1107.06 505.621L1106.95 426.161L1123.5 426.177L1123.77 437.132C1131.55 429.206 1136.86 427.205 1147.28 425.448Z"
     id="path19" />
  <path
     style="fill:#ffffff;stroke-width:0.951673"
     d="m 414.56043,507.16498 c -16.72494,-4.4979 -30.78559,-18.64766 -35.85966,-36.08691 -2.51373,-8.63956 -2.36497,-23.83979 0.31779,-32.47112 6.74278,-21.69378 27.23343,-35.17085 53.04092,-34.88598 19.47258,0.21495 32.57359,7.691 42.56594,24.29009 l 3.58286,5.95177 -8.1931,0.27653 -8.19309,0.27654 -5.70467,-5.84808 c -7.75102,-7.94589 -13.60085,-10.54897 -25.05257,-11.14797 -10.61657,-0.55531 -16.93283,1.11991 -23.84657,6.32467 -15.30151,11.5192 -19.2887,36.47818 -8.66497,54.24085 5.32019,8.89525 15.10228,15.68888 24.8217,17.23858 11.47379,1.82942 26.77495,-3.77894 33.47649,-12.27019 l 3.75817,-4.76181 8.86386,-0.0382 8.86387,-0.0382 -2.18944,3.89557 c -1.20418,2.14257 -5.40705,6.96137 -9.3397,10.70845 -11.45551,10.91498 -23.77864,15.90413 -38.99334,15.78689 -4.46995,-0.0345 -10.43447,-0.68314 -13.25449,-1.44154 z"
     id="path20" />
  <path
     style="fill:#ffffff;stroke-width:0.951673"
     d="m 525.79926,507.15123 c -11.19437,-2.97847 -18.31378,-9.80569 -22.02851,-21.12439 -1.90483,-5.804 -2.13131,-8.78198 -2.49399,-32.79264 l -0.3989,-26.40892 h 7.59593 7.59592 l 0.47393,23.5539 c 0.64484,32.04805 2.06555,36.88659 12.29071,41.85861 7.56261,3.67736 12.50304,4.48788 18.3623,3.0125 5.96969,-1.50319 11.00518,-6.51377 13.90122,-13.83249 2.13772,-5.4023 2.20002,-6.3676 1.94208,-30.08694 l -0.2665,-24.50558 h 8.15974 8.15975 v 40.4461 40.44609 h -8.03949 -8.03948 l -0.28766,-4.76691 -0.28765,-4.7669 -4.67103,3.32736 c -9.67451,6.89153 -20.25163,8.75766 -31.96837,5.64021 z"
     id="path21" />
  <path
     style="fill:#ffffff;stroke-width:0.951673"
     d="m 620.61671,506.32813 c -8.86352,-3.64418 -15.93656,-11.14551 -19.55308,-20.73705 l -0.98678,-2.6171 h 7.88247 7.88246 l 3.02115,4.28613 c 5.27735,7.48703 12.34556,10.19466 21.11878,8.09 11.75125,-2.81908 12.86767,-13.45359 1.99471,-19.00056 -1.95454,-0.99713 -7.58841,-2.96657 -12.51971,-4.37652 -10.13149,-2.89678 -14.63532,-4.9525 -20.99246,-9.58175 -5.2273,-3.80651 -7.48284,-8.05579 -7.48284,-14.09718 0,-8.47998 4.98202,-14.66173 15.97664,-19.82401 5.64069,-2.64846 6.54242,-2.78902 15.71453,-2.44949 8.32452,0.30815 10.52942,0.75108 15.25995,3.06551 7.19316,3.51929 13.08599,11.56251 15.49066,21.14346 0.53505,2.13182 0.31274,2.29088 -3.20207,2.29088 -7.72721,0 -12.53045,-1.11228 -13.14343,-3.0436 -0.86211,-2.71629 -6.00329,-8.26413 -9.18131,-9.90755 -3.63238,-1.87838 -11.17315,-1.88908 -14.78565,-0.021 -3.65622,1.8907 -7.85422,6.85169 -7.85422,9.28171 0,4.55333 9.11363,9.84741 22.82808,13.26074 9.39612,2.33856 13.9881,4.53144 19.0328,9.08902 7.43227,6.71461 9.64056,16.27157 5.46374,23.64584 -6.65727,11.75354 -27.47504,17.45972 -41.96442,11.5025 z"
     id="path22" />
  <path
     style="fill:#ffffff;stroke-width:0.951673"
     d="m 712.19688,506.77804 c -6.94385,-0.89299 -13.56845,-4.14192 -16.63012,-8.15597 -4.50605,-5.90774 -5.1281,-10.19077 -5.1281,-35.30864 V 440.1487 h -4.28253 -4.28252 v -6.6034 -6.6034 l 4.28252,-0.6422 4.28253,-0.64221 v -9.40867 -9.40867 h 8.08922 8.08922 v 9.99256 9.99257 h 9.99257 9.99256 v 6.66171 6.66171 h -9.94944 -9.94944 l -0.65021,3.46589 c -0.35761,1.90625 -0.41005,11.22074 -0.11653,20.69889 0.55701,17.98636 2.04672,26.63829 4.95249,28.76305 0.88031,0.6437 4.77589,1.46791 8.65685,1.83159 l 7.05628,0.66122 v 6.07407 6.07406 l -4.52045,-0.12478 c -2.48624,-0.0686 -6.93445,-0.43522 -9.8849,-0.81465 z"
     id="path23" />
  <path
     style="fill:#ffffff;stroke-width:0.951673"
     d="m 775.37656,508.21049 c -16.59433,-3.6965 -29.59652,-17.41106 -32.79077,-34.58732 -4.48909,-24.13893 16.46831,-48.65471 41.59265,-48.65471 20.04276,0 37.78504,15.22473 41.4886,35.60155 5.09747,28.04611 -22.19374,53.89924 -50.29048,47.64048 z m 19.51687,-15.30795 c 9.85856,-4.91273 14.84806,-13.52575 14.84806,-25.63116 0,-16.26915 -9.6431,-27.58856 -24.52027,-28.78276 -5.19699,-0.41716 -6.55191,-0.13188 -11.68842,2.46102 -9.84599,4.97024 -15.52537,14.425 -15.52537,25.8459 0,20.45997 19.92221,34.56042 36.886,26.107 z"
     id="path24" />
  <path
     style="fill:#ffffff;stroke-width:0.951673"
     d="m 846.51301,467.27138 v -40.4461 h 8.22178 8.22178 l -0.56356,4.75836 c -0.30996,2.6171 -0.37377,4.75837 -0.14181,4.75837 0.23197,0 3.18313,-1.89051 6.55814,-4.20114 7.488,-5.12648 13.66674,-6.66703 24.45738,-6.09796 10.16559,0.5361 16.70537,3.40637 23.50864,10.3178 l 4.97745,5.05658 4.76132,-4.86237 c 13.45378,-13.73935 36.62648,-14.90261 50.32555,-2.52632 9.05119,8.17721 10.66395,15.04434 11.21551,47.75579 l 0.43728,25.93308 h -7.95169 -7.95169 l -0.0214,-20.69888 c -0.0229,-22.18178 -1.34758,-34.27056 -4.28465,-39.10018 -6.1722,-10.14936 -28.1121,-11.7876 -36.85696,-2.75208 -6.02766,6.22801 -6.35074,7.99434 -6.69774,36.61806 l -0.31438,25.93308 h -7.54529 -7.54529 l -0.0165,-17.84386 c -0.0195,-21.07774 -1.22534,-34.1557 -3.656,-39.65061 -1.48468,-3.35637 -2.83944,-4.54988 -8.60155,-7.57779 -6.96849,-3.66184 -14.63321,-5.2574 -19.44903,-4.04871 -3.66383,0.91957 -8.09901,5.12975 -10.59713,10.05954 -4.28932,8.46458 -5.60544,17.70909 -5.59708,39.31422 l 0.008,19.74721 h -7.45039 -7.45039 z"
     id="path25" />
  <path
     style="fill:#ffffff;stroke-width:0.951673"
     d="m 1037.5653,507.63757 c -5.9187,-1.39529 -14.8985,-6.43745 -19.2953,-10.83426 -15.9601,-15.96004 -15.1653,-47.76402 1.5449,-61.82475 9.4113,-7.91911 24.779,-11.07612 39.1122,-8.03491 17.2721,3.66474 25.252,15.05254 27.7594,39.61397 l 0.5101,4.99628 h -32.3121 -32.312 v 2.19233 c 0,3.1421 4.2196,11.17034 7.7909,14.82324 4.9841,5.09785 9.9031,7.18169 16.9526,7.18169 7.7611,0 12.5767,-2.36265 18.2552,-8.95648 l 4.1091,-4.77144 7.8513,-4.7e-4 c 9.0971,-5.4e-4 9.2584,0.23602 4.9024,7.18868 -5.8179,9.28631 -13.2932,15.20103 -22.6811,17.94619 -5.5352,1.61859 -16.3639,1.85282 -22.1876,0.47993 z m 32.97,-49.16917 c -3.0479,-13.10317 -11.0754,-20.21492 -22.7435,-20.14897 -12.7872,0.0723 -21.5148,7.09113 -25.6457,20.62481 l -0.6535,2.14126 h 24.8257 24.8258 z"
     id="path26" />
  <path
     style="fill:#ffffff;stroke-width:0.951673"
     d="m 1112.0297,507.97252 c -4.8908,-0.89919 -4.7583,0.26328 -4.7583,-41.76934 v -39.3779 h 8.0892 8.0892 v 5.2342 c 0,2.87881 0.3481,5.2342 0.7736,5.2342 0.4255,0 1.9667,-1.24524 3.4248,-2.7672 3.231,-3.37238 11.8314,-7.32078 17.8605,-8.19964 l 4.4529,-0.64909 1.0979,3.6667 c 0.6038,2.01669 0.9554,5.14978 0.7813,6.96243 l -0.3166,3.29574 -7.5408,1.1606 c -12.8366,1.97568 -18.5002,7.75174 -20.5491,20.95724 -0.5955,3.83784 -0.9205,15.17527 -0.7537,26.2878 l 0.2934,19.53958 -3.3309,0.55018 c -3.5025,0.57853 -3.8118,0.57343 -7.6134,-0.1255 z"
     id="path27" />
  <path
     style="fill:#ffffff;stroke-width:0.951673"
     d="m 1071.5836,646.92474 c -4.3576,-1.07113 -4.2825,-0.33813 -4.2825,-41.77733 v -39.37789 h 8.0892 8.0893 v 6.18201 6.18201 l 5.7631,-4.644 c 7.9225,-6.38399 20.7654,-9.97772 22.2094,-6.21468 0.3177,0.82794 0.5776,4.03984 0.5776,7.13755 v 5.6322 h -3.1581 c -5.5422,0 -12.9608,2.80619 -16.9526,6.41258 -8.1286,7.3437 -9.7618,14.59577 -9.2414,41.03619 l 0.3743,19.01595 -2.7602,0.55203 c -3.0626,0.61253 -5.8374,0.569 -8.7081,-0.13662 z"
     id="path28" />
  <path
     style="fill:#ffffff;stroke-width:0.951673"
     d="m 1001.9401,647.51952 c -20.34993,-3.39739 -33.63299,-19.67081 -33.60167,-41.16623 0.025,-17.17485 6.85331,-29.69951 19.70175,-36.13759 12.17852,-6.10242 29.60312,-6.54905 40.91102,-1.04864 6.2262,3.02857 12.9415,10.41763 15.3724,16.9148 1.8571,4.9635 3.4723,12.63719 4.2881,20.37167 l 0.4265,4.04461 h -32.7421 c -27.03805,0 -32.7422,0.22642 -32.7422,1.29965 0,2.70951 6.87171,14.88679 9.79525,17.35805 8.15205,6.89089 18.64115,7.90466 28.16345,2.72196 2.6766,-1.45678 4.8666,-2.97603 4.8666,-3.37611 0,-0.40007 1.1087,-2.04502 2.4638,-3.65544 2.3916,-2.84224 2.6983,-2.92803 10.4684,-2.92803 6.0706,0 8.0046,0.30924 8.0046,1.27996 0,2.37402 -7.2863,12.57615 -11.1899,15.66786 -5.2683,4.17257 -13.2404,7.68844 -19.9101,8.78076 -6.2786,1.0283 -7.4149,1.01817 -14.2759,-0.12728 z m 30.6214,-49.63104 c -0.3342,-1.1777 -1.8973,-4.83518 -3.4736,-8.12773 -3.9752,-8.30363 -8.1368,-10.99631 -17.7449,-11.4815 -8.3102,-0.41964 -12.68784,0.68437 -18.01491,4.54328 -3.58557,2.59737 -7.54856,9.02687 -9.2863,15.06595 l -0.61615,2.14126 h 24.87176 24.8718 z"
     id="path29" />
  <path
     style="fill:#ffffff;stroke-width:0.951673"
     d="m 897.66155,687.56549 c -12.64121,-3.20355 -28.94979,-17.54039 -28.1119,-24.71313 0.27011,-2.31232 0.53896,-2.40053 8.13065,-2.6678 4.31821,-0.15203 7.8513,0.10887 7.8513,0.57977 0,0.4709 1.80376,2.90535 4.00835,5.4099 5.38655,6.11944 11.74693,9.01907 19.78347,9.01907 11.67045,0 19.45099,-5.76265 21.81847,-16.15984 1.03251,-4.53444 1.40767,-22.84015 0.46809,-22.84015 -0.30448,0 -2.3686,1.48726 -4.58694,3.30502 -2.21834,1.81776 -6.57294,4.48438 -9.67689,5.92581 -4.82891,2.24249 -6.88656,2.62399 -14.25475,2.64294 -8.05166,0.0207 -9.07998,-0.20944 -15.82531,-3.54168 -4.09368,-2.0223 -8.65726,-5.16122 -10.55055,-7.25687 -19.0712,-21.10954 -14.80481,-56.5 8.1524,-67.6256 14.46685,-7.01098 29.16513,-5.75169 43.0131,3.68519 1.57026,1.07007 3.17621,1.94841 3.56877,1.95185 0.39257,0.003 0.71376,-1.92086 0.71376,-4.27625 v -4.28253 h 8.56505 8.56506 l -0.0294,39.73234 c -0.0366,49.50963 -0.93475,57.24062 -7.8308,67.40596 -6.57788,9.69636 -15.22863,13.72018 -30.68257,14.27173 -5.2342,0.18681 -11.12442,-0.0678 -13.08938,-0.56573 z m 16.76033,-53.85234 c 6.60587,-2.25084 14.32283,-9.70178 16.7404,-16.16331 5.49387,-14.68368 -0.57007,-32.50536 -12.99575,-38.19403 -4.63993,-2.12423 -6.14757,-2.35691 -12.27083,-1.89381 -12.14715,0.91869 -19.72317,6.72861 -23.57668,18.08055 -1.98618,5.85105 -1.97516,15.31088 0.025,21.50415 4.30142,13.31858 19.19423,21.05633 32.07782,16.66645 z"
     id="path30" />
  <path
     style="fill:#ffffff;stroke-width:0.951673"
     d="m 792.26766,647.24176 c -25.5382,-5.67822 -38.20221,-36.81831 -25.31541,-62.24919 8.03051,-15.84745 29.10671,-23.84483 46.58691,-17.67746 2.03717,0.71876 6.27007,3.02043 9.40645,5.11482 3.13638,2.09439 5.86783,3.80799 6.0699,3.80799 0.20206,0 0.36739,-2.35539 0.36739,-5.2342 v -5.2342 h 8.08922 8.08922 v 40.44609 40.4461 h -8.08922 -8.08922 v -4.75836 c 0,-5.66834 -1.03232,-5.99888 -6.1165,-1.95848 -5.09557,4.04945 -10.95469,6.65134 -17.32848,7.69516 -6.67766,1.09359 -7.00314,1.08411 -13.67026,-0.39827 z m 20.26286,-13.91108 c 13.52979,-5.06215 19.67644,-17.50967 16.8681,-34.15942 -2.2308,-13.22569 -10.54063,-20.81153 -23.84016,-21.76311 -5.71652,-0.40901 -6.94136,-0.16739 -11.36985,2.24289 -6.311,3.43488 -12.73203,10.55145 -14.68096,16.27122 -1.93304,5.67317 -1.94027,14.89232 -0.0161,20.53944 2.91223,8.54694 11.56713,15.97869 20.71662,17.78885 6.03587,1.19415 6.8307,1.13482 12.32235,-0.91987 z"
     id="path31" />
  <path
     style="fill:#ffffff;stroke-width:0.951673"
     d="m 666.64684,606.21561 v -40.44609 h 8.08922 8.08922 l 0.0146,3.09293 c 0.008,1.70112 0.41371,3.7241 0.90155,4.49551 0.75558,1.1948 1.21161,1.10497 3.07836,-0.60636 8.91325,-8.1711 27.47352,-9.88865 39.73209,-3.67676 5.84994,2.96439 11.46695,9.3591 13.71694,15.61613 2.30024,6.39676 3.37071,19.90247 3.42207,43.1752 l 0.0415,18.79554 h -8.02113 -8.02112 l -0.37846,-25.93309 c -0.24896,-17.06018 -0.78235,-27.17717 -1.55893,-29.56921 -1.90969,-5.88228 -7.1345,-10.89272 -13.19639,-12.65496 -11.9158,-3.46402 -21.94065,0.12712 -26.82401,9.60899 -2.41421,4.68759 -2.43323,4.90853 -2.72346,31.63441 l -0.29228,26.91386 h -8.03486 -8.03486 z"
     id="path32" />
  <path
     style="fill:#ffffff;stroke-width:0.951673"
     d="m 590.03717,647.5883 c -13.71071,-2.76689 -24.37438,-12.4104 -29.17351,-26.38255 -3.03199,-8.82732 -3.02849,-22.99496 0.008,-30.79293 6.30592,-16.19623 18.56073,-24.71558 35.82761,-24.90678 9.16245,-0.10146 14.90496,1.63981 22.84015,6.9257 l 5.71004,3.80364 0.28385,-4.64732 c 0.26531,-4.34398 0.47496,-4.68555 3.21189,-5.23293 1.61043,-0.32209 5.22991,-0.58561 8.04329,-0.58561 h 5.11525 v 40.44609 40.4461 h -8.08922 -8.08922 l -0.0146,-3.56877 c -0.025,-6.13078 -1.15984,-6.79172 -5.87655,-3.42263 -5.9244,4.23171 -11.01336,6.60821 -16.75795,7.82582 -5.62707,1.1927 -7.51899,1.20607 -13.03866,0.0922 z m 18.93546,-14.30387 c 10.66505,-5.01317 16.72098,-14.03763 17.49303,-26.06786 0.56711,-8.83684 -1.37943,-14.99884 -6.61805,-20.95024 -4.94991,-5.62339 -10.16979,-8.25731 -17.53613,-8.84861 -4.8624,-0.3903 -6.73566,-0.0697 -10.97222,1.87768 -11.20407,5.15013 -16.14289,12.09115 -16.81061,23.62563 -0.31271,5.40193 0.0253,8.83769 1.25353,12.74263 4.48392,14.25556 21.32672,23.19738 33.19045,17.62077 z"
     id="path33" />
  <path
     style="fill:#ffffff;stroke-width:0.951673"
     d="m 426.38272,627.12153 c -0.382,-10.7471 -0.38032,-33.4445 0.004,-50.43866 l 0.69828,-30.89848 h 8.7684 8.7684 l 2.69245,6.42379 c 12.65758,30.1991 34.45655,76.06459 35.59007,74.88228 0.46916,-0.48934 6.85541,-14.59381 14.19168,-31.34325 7.33627,-16.74944 15.24394,-34.73606 17.57259,-39.97026 l 4.23391,-9.51673 9.00945,-0.27058 9.00943,-0.27058 0.62495,13.03072 c 0.80071,16.69561 0.80033,63.30529 -6.3e-4,77.20561 l -0.61691,10.70632 h -7.36328 -7.36329 L 521.4891,626.9145 c -0.39206,-10.86097 -0.45468,-26.70632 -0.13914,-35.2119 0.31552,-8.50557 0.26801,-15.46104 -0.10561,-15.4566 -0.82134,0.01 -8.2297,16.06125 -21.7888,47.20919 l -10.1021,23.20652 -7.23435,-0.006 -7.23434,-0.006 -6.46912,-15.2062 c -7.16394,-16.83943 -23.23029,-51.36321 -24.56144,-52.77826 -0.50052,-0.53206 -0.85048,13.27193 -0.85048,33.54647 v 34.45056 h -7.96323 -7.96322 z"
     id="path34" />
</svg>
